<?xml version="1.0" encoding="UTF-8"?>
<svg xmlns="http://www.w3.org/2000/svg" xmlns:xlink="http://www.w3.org/1999/xlink" width="187.5pt" height="187.499995pt" viewBox="0 0 187.5 187.499995" version="1.2">
<defs>
<clipPath id="clip1">
  <path d="M 42.398438 32.617188 L 145 32.617188 L 145 154.867188 L 42.398438 154.867188 Z M 42.398438 32.617188 "/>
</clipPath>
</defs>
<g id="surface1">
<g clip-path="url(#clip1)" clip-rule="nonzero">
<path style=" stroke:none;fill-rule:nonzero;fill:rgb(7.449341%,2.349854%,32.939148%);fill-opacity:1;" d="M 138.664062 133.828125 C 141.929688 133.828125 144.582031 131.179688 144.582031 127.914062 L 144.582031 38.53125 C 144.582031 35.265625 141.929688 32.617188 138.664062 32.617188 L 60.328125 32.617188 C 50.535156 32.617188 42.570312 40.578125 42.570312 50.363281 C 42.570312 50.363281 42.613281 139.242188 42.691406 139.625 C 43.316406 148.121094 50.359375 154.867188 59.015625 154.867188 L 138.664062 154.867188 C 141.929688 154.867188 144.582031 152.21875 144.582031 148.953125 C 144.582031 145.683594 141.929688 143.035156 138.664062 143.035156 L 131.867188 143.035156 L 131.867188 133.828125 Z M 132.746094 121.996094 L 72.492188 121.996094 L 72.492188 44.449219 L 132.746094 44.449219 Z M 60.328125 44.449219 L 60.652344 44.449219 L 60.652344 121.996094 L 59.015625 121.996094 C 57.40625 121.996094 55.878906 122.300781 54.40625 122.734375 L 54.40625 50.363281 C 54.40625 47.101562 57.0625 44.449219 60.328125 44.449219 Z M 120.027344 143.035156 L 59.015625 143.035156 C 56.476562 143.035156 54.40625 140.96875 54.40625 138.433594 C 54.40625 135.894531 56.476562 133.828125 59.015625 133.828125 L 120.027344 133.828125 Z M 120.027344 143.035156 "/>
</g>
</g>
</svg>
